<?xml version="1.0" standalone="no"?>
<!DOCTYPE svg PUBLIC "-//W3C//DTD SVG 20010904//EN"
 "http://www.w3.org/TR/2001/REC-SVG-20010904/DTD/svg10.dtd">
<svg version="1.0" xmlns="http://www.w3.org/2000/svg"
 width="2400.000000pt" height="2400.000000pt" viewBox="0 0 2400.000000 2400.000000"
 preserveAspectRatio="xMidYMid meet">

<g transform="translate(0.000000,2400.000000) scale(0.100000,-0.100000)"
fill="#000000" stroke="none">
<path d="M8680 20000 c-269 -10 -352 -23 -540 -82 -173 -54 -297 -121 -475
-257 -218 -165 -352 -331 -484 -597 -107 -217 -152 -366 -170 -564 -15 -156
-15 -6875 -1 -7021 28 -286 108 -503 291 -784 54 -84 102 -141 202 -240 73
-72 166 -153 208 -181 168 -112 448 -234 610 -264 209 -40 127 -39 3694 -40
3143 -2 3429 -1 3535 15 149 21 209 36 352 84 240 81 444 209 643 406 90 88
140 148 190 225 164 252 237 432 282 700 16 99 17 312 21 3480 2 2322 0 3428
-8 3544 -21 333 -100 567 -288 851 -100 152 -276 332 -417 428 -232 158 -420
231 -730 285 -80 14 -459 16 -3400 17 -1821 1 -3402 -1 -3515 -5z m1600 -1409
c30 -32 80 -100 110 -150 68 -115 163 -232 232 -290 29 -23 109 -80 178 -126
69 -46 137 -96 151 -112 35 -37 69 -94 69 -115 0 -21 -104 -109 -187 -158 -71
-42 -190 -131 -262 -196 -66 -60 -140 -151 -224 -280 -84 -127 -144 -193 -178
-196 -41 -3 -103 57 -187 182 -42 63 -79 117 -82 120 -3 3 -27 34 -53 70 -59
80 -251 261 -307 290 -23 11 -43 27 -46 34 -3 8 -15 16 -26 20 -18 4 -19 7 -8
20 7 9 30 21 51 28 33 9 39 15 39 40 0 15 4 28 9 28 14 0 20 38 7 44 -8 3 -7
7 2 14 11 7 10 10 -3 16 -11 4 -14 12 -10 26 4 14 2 18 -7 15 -10 -4 -14 6
-14 42 0 52 1 54 62 98 108 79 227 187 262 239 16 23 45 65 65 93 20 29 37 55
37 58 0 13 106 152 134 177 25 22 41 28 81 28 48 0 52 -2 105 -59z m3633 -515
c91 -68 1333 -1312 1367 -1369 20 -33 25 -54 24 -103 -2 -97 -29 -133 -155
-203 -31 -17 -96 -49 -145 -70 -49 -21 -200 -86 -335 -144 -135 -58 -293 -124
-351 -147 -58 -22 -112 -48 -119 -56 -10 -13 6 -33 104 -130 127 -125 163
-171 209 -270 42 -91 38 -166 -18 -279 -52 -106 -92 -145 -185 -179 -147 -53
-217 -51 -349 9 -113 51 -116 52 -140 13 -11 -18 -31 -60 -45 -93 -43 -105
-186 -446 -229 -550 -119 -281 -506 -1200 -563 -1335 -36 -85 -98 -231 -138
-325 -40 -93 -117 -273 -170 -400 -159 -372 -205 -443 -349 -529 -116 -70
-195 -84 -716 -131 -212 -19 -459 -42 -550 -50 -91 -8 -223 -19 -295 -25 -71
-5 -209 -16 -305 -24 -565 -48 -834 -65 -838 -54 -5 10 -32 11 -32 1 0 -5 -27
-8 -59 -8 -51 0 -58 2 -48 15 6 8 13 17 14 19 1 2 9 -1 16 -8 11 -8 18 -6 32
9 13 14 22 17 30 10 14 -11 45 -3 45 11 0 13 34 11 48 -3 9 -9 13 -7 18 6 4
11 13 15 26 10 12 -3 27 1 38 11 13 12 25 15 37 9 34 -15 65 -14 59 2 -3 8 1
14 9 14 8 0 19 8 24 18 6 9 11 11 11 5 0 -7 7 -13 16 -13 8 0 12 5 9 10 -3 6
-2 10 3 10 5 0 12 9 15 21 3 11 11 19 19 18 31 -4 42 3 18 12 l-24 10 33 28
33 28 -25 7 c-14 3 -32 3 -40 0 -26 -10 -27 12 -2 26 24 13 35 50 15 50 -5 0
-10 -7 -10 -15 0 -8 -4 -15 -10 -15 -5 0 -7 6 -4 14 9 24 -14 28 -34 5 -13
-13 -22 -17 -27 -10 -3 6 1 14 9 17 9 3 16 13 16 21 0 8 5 11 10 8 6 -3 10 -1
10 4 0 6 -7 11 -15 11 -8 0 -12 6 -9 14 4 11 0 13 -14 9 -30 -7 -36 13 -10 39
13 13 17 23 10 26 -7 2 -9 15 -5 33 4 22 2 29 -11 29 -17 0 -21 -15 -17 -63 2
-27 1 -28 -21 -16 -32 16 -37 23 -12 17 22 -6 22 -10 15 90 -1 17 -7 22 -30
22 -16 0 -31 -6 -34 -12 -3 -10 -7 -10 -17 -1 -20 19 -49 -2 -45 -32 3 -29
-17 -29 -21 -1 -1 10 -6 21 -10 24 -4 4 -4 -1 -1 -10 4 -12 1 -18 -8 -18 -9 0
-12 -6 -9 -15 4 -8 2 -15 -4 -15 -6 0 -13 6 -15 13 -3 7 -6 5 -6 -5 -1 -10 -8
-18 -17 -18 -10 0 -14 -6 -10 -15 7 -19 -17 -15 -26 5 -5 11 -7 9 -7 -7 -1
-25 -18 -40 -31 -27 -9 9 45 80 58 79 4 -1 22 17 41 40 19 22 38 39 42 37 5
-1 9 4 9 11 0 7 134 145 297 307 163 162 337 338 387 390 49 52 166 171 260
264 94 93 291 287 437 432 147 145 270 264 273 264 4 0 19 -6 34 -14 15 -7 74
-24 131 -36 123 -26 274 -25 356 4 139 50 266 126 330 199 90 103 175 322 175
453 0 28 -7 91 -15 140 -19 105 -59 192 -147 315 -50 70 -75 95 -127 127 -160
97 -243 121 -429 122 -120 0 -177 -16 -317 -88 -139 -72 -233 -181 -304 -350
-22 -53 -50 -227 -51 -312 0 -53 28 -158 59 -217 11 -23 21 -49 21 -58 0 -14
-33 -65 -65 -101 -20 -23 -844 -850 -886 -891 -24 -22 -61 -59 -82 -81 -23
-25 -44 -39 -53 -35 -10 4 -12 0 -7 -13 5 -14 3 -16 -12 -10 -11 4 -17 4 -13
1 11 -12 -33 -54 -50 -48 -11 5 -14 2 -9 -10 3 -9 2 -19 -3 -22 -4 -3 -11 1
-13 7 -3 8 -6 6 -6 -5 -1 -11 -5 -15 -13 -11 -7 5 -9 2 -6 -8 5 -12 0 -14 -20
-10 -17 3 -22 7 -12 10 17 6 45 32 34 32 -13 0 45 48 65 55 12 4 18 12 14 21
-3 8 1 14 11 14 9 0 16 5 16 11 0 6 17 28 39 49 21 21 41 45 44 54 4 9 13 16
22 16 18 0 21 40 3 40 -7 0 -5 5 5 11 10 6 24 8 32 5 9 -3 12 0 8 9 -3 8 -10
12 -15 9 -6 -4 -5 3 1 15 13 24 27 27 34 9 2 -8 8 -9 13 -4 5 5 4 11 -3 13
-18 6 -16 23 2 23 18 0 20 16 3 24 -10 3 -8 9 5 19 9 8 17 21 17 30 0 10 6 13
20 10 14 -4 20 0 20 11 0 9 -4 16 -9 16 -5 0 -7 9 -4 20 5 20 33 29 33 10 0
-5 5 -10 10 -10 6 0 10 7 10 16 0 8 -4 13 -9 10 -4 -3 -16 0 -25 7 -14 10 -15
18 -6 41 13 36 10 39 -24 26 -26 -9 -27 -9 -20 12 4 13 11 26 17 29 5 4 7 15
3 25 -7 18 -8 18 -21 1 -8 -11 -11 -25 -8 -33 3 -9 -1 -14 -12 -14 -11 0 -15
-5 -12 -14 7 -18 -18 -42 -27 -27 -7 11 14 51 26 51 4 0 5 6 2 14 -3 8 -1 17
5 20 6 4 8 13 4 21 -3 10 2 15 16 15 22 0 28 14 11 25 -5 3 -10 1 -10 -4 0 -6
-12 -11 -27 -10 -16 0 -23 3 -16 5 7 3 10 11 7 18 -3 8 2 16 10 19 23 9 20 37
-5 37 -11 0 -17 5 -14 10 3 6 -1 10 -9 10 -9 0 -16 7 -16 15 0 8 7 15 15 15 8
0 15 2 15 4 0 2 3 11 6 20 4 11 0 16 -12 17 -11 0 -14 3 -6 6 15 6 16 70 1 75
-13 4 0 38 15 38 7 0 17 18 23 40 8 32 8 40 -3 40 -8 0 -14 7 -14 15 0 8 -11
17 -25 21 -15 4 -25 13 -24 23 0 10 2 11 6 4 5 -13 33 -18 33 -6 0 13 -34 43
-49 43 -14 0 -14 2 -1 10 13 8 12 10 -3 10 -10 0 -15 4 -12 10 4 6 13 5 25 -2
10 -7 16 -16 13 -21 -3 -5 0 -8 8 -5 22 7 22 36 0 64 -23 29 -20 44 7 39 9 -1
12 0 6 2 -18 6 -24 54 -8 60 7 2 10 11 8 18 -3 7 -1 16 5 20 18 10 12 25 -9
25 -23 0 -27 18 -5 26 9 4 15 11 14 18 -1 6 2 20 6 30 6 13 4 21 -3 24 -21 7
-2 22 29 22 37 0 38 17 2 23 -27 4 -27 4 -5 12 25 8 30 25 7 25 -8 0 -14 3
-14 8 1 4 0 9 -1 12 -1 3 -3 38 -5 78 -2 53 1 72 11 72 19 0 27 -19 14 -35
-18 -21 -3 -37 21 -24 15 8 18 14 9 24 -6 7 -10 17 -9 21 4 21 -2 32 -20 37
-17 4 -19 15 -12 61 0 4 7 6 15 3 17 -7 31 9 40 45 4 17 1 28 -7 32 -8 3 -6 9
7 20 19 15 19 16 -7 16 -31 0 -35 19 -13 62 12 23 12 27 0 32 -7 3 -11 12 -8
19 4 11 -1 13 -22 9 -20 -4 -25 -2 -19 8 4 6 1 23 -6 37 -12 22 -11 27 4 38
10 7 15 19 11 29 -4 9 -1 16 6 16 7 0 10 6 7 14 -3 8 -1 17 6 19 7 2 9 8 4 12
-4 5 -13 3 -19 -3 -15 -15 -38 -16 -38 -2 0 6 7 10 16 10 14 0 14 3 4 15 -10
12 -7 20 19 47 32 33 46 73 16 48 -16 -13 -45 -7 -45 10 0 5 7 10 15 10 8 0
15 5 15 11 0 7 10 21 23 32 l22 19 -22 -6 c-19 -6 -23 -4 -23 14 0 12 5 18 10
15 14 -9 12 19 -2 33 -9 9 -9 12 0 12 7 0 12 -4 12 -10 0 -5 7 -10 15 -10 28
0 15 18 -17 25 l-32 8 29 24 c20 16 26 27 18 30 -7 2 -13 14 -13 26 -1 20 -2
21 -14 5 -7 -10 -22 -18 -32 -17 -16 0 -15 2 4 10 13 5 20 13 17 19 -4 6 5 10
20 10 15 0 24 -4 20 -10 -3 -5 -1 -10 4 -10 6 0 11 9 11 20 0 15 -5 19 -22 16
-13 -3 -38 -5 -56 -5 -18 -1 -31 -5 -28 -10 7 -10 -24 -25 -33 -16 -3 3 1 10
8 14 9 6 1 10 -23 13 -21 2 -40 0 -43 -5 -3 -6 -2 -7 3 -4 15 9 38 -9 29 -22
-4 -8 -11 -9 -18 -3 -7 5 -31 12 -54 16 -38 5 -41 4 -36 -14 4 -16 1 -20 -18
-19 -23 0 -23 1 -4 10 16 7 13 8 -15 5 -34 -3 -34 -3 -12 12 42 28 245 112
255 105 6 -3 7 -1 4 4 -4 6 1 13 11 16 9 3 78 31 152 62 249 104 512 214 600
250 30 12 107 45 170 72 181 79 656 279 889 375 197 81 436 195 439 209 1 8
-13 33 -33 56 -64 75 -90 138 -90 223 0 65 4 84 33 143 42 85 128 179 185 202
48 20 192 31 261 21 65 -10 135 -61 279 -203 69 -68 130 -123 136 -123 12 0
88 155 121 245 10 28 48 122 85 210 37 88 91 221 122 295 30 74 69 164 86 199
39 79 122 158 175 166 20 4 42 8 47 10 29 10 52 0 118 -49z m-3793 -2686 c0
-5 -4 -10 -10 -10 -5 0 -10 5 -10 10 0 6 5 10 10 10 6 0 10 -4 10 -10z m20
-380 c0 -5 -4 -10 -10 -10 -5 0 -10 5 -10 10 0 6 5 10 10 10 6 0 10 -4 10 -10z
m-10 -70 c0 -5 -7 -7 -15 -4 -8 4 -15 8 -15 10 0 2 7 4 15 4 8 0 15 -4 15 -10z
m-5 -40 c-3 -5 -10 -10 -16 -10 -5 0 -9 5 -9 10 0 6 7 10 16 10 8 0 12 -4 9
-10z m53 -48 c2 -8 -8 -12 -27 -12 -21 0 -31 5 -31 15 0 19 52 15 58 -3z
m-101 -508 c-3 -3 -12 -4 -19 -1 -8 3 -5 6 6 6 11 1 17 -2 13 -5z m-5 -86
c-12 -12 -35 -1 -27 12 3 5 13 6 21 3 10 -4 12 -9 6 -15z m-2 -59 c0 -5 -4 -9
-10 -9 -5 0 -10 7 -10 16 0 8 5 12 10 9 6 -3 10 -10 10 -16z m25 -139 c3 -6
-4 -10 -17 -10 -18 0 -20 2 -8 10 19 12 18 12 25 0z m1 -32 c10 13 15 14 25 5
17 -17 10 -22 -31 -25 -28 -2 -35 1 -38 17 -4 19 -3 19 14 3 16 -16 18 -16 30
0z m-5 -138 c6 0 7 -5 3 -11 -8 -14 -24 8 -23 31 1 11 3 10 6 -2 2 -10 9 -18
14 -18z m-21 -231 c0 -6 -4 -7 -10 -4 -5 3 -10 11 -10 16 0 6 5 7 10 4 6 -3
10 -11 10 -16z m50 -3 c0 -3 -4 -8 -10 -11 -5 -3 -10 -1 -10 4 0 6 5 11 10 11
6 0 10 -2 10 -4z m-25 -66 c3 -5 1 -10 -4 -10 -6 0 -11 5 -11 10 0 6 2 10 4
10 3 0 8 -4 11 -10z m75 -60 c0 -5 -8 -10 -17 -10 -15 0 -16 2 -3 10 19 12 20
12 20 0z m-25 -40 c3 -5 1 -10 -4 -10 -6 0 -11 5 -11 10 0 6 2 10 4 10 3 0 8
-4 11 -10z m-340 -590 c3 -5 1 -10 -4 -10 -6 0 -11 5 -11 10 0 6 2 10 4 10 3
0 8 -4 11 -10z m4706 -622 c19 -23 47 -61 63 -83 65 -89 135 -162 231 -236
166 -130 179 -142 171 -167 -4 -12 -44 -50 -89 -84 -125 -96 -221 -192 -319
-320 -50 -65 -91 -118 -93 -118 -7 0 -142 166 -195 240 -30 41 -67 88 -83 104
l-29 29 5 105 c3 58 1 116 -3 128 -6 15 -5 24 3 27 8 3 7 10 -5 24 -10 11 -18
25 -18 31 0 12 60 62 76 63 10 0 58 63 118 154 38 58 114 145 126 145 4 0 22
-19 41 -42z m-4770 -111 c-13 -13 -26 -3 -16 12 3 6 11 8 17 5 6 -4 6 -10 -1
-17z m69 -24 c0 -43 -5 -41 -13 5 -4 18 -2 32 3 32 6 0 10 -16 10 -37z m-50
-9 c0 -8 -5 -12 -10 -9 -6 4 -8 11 -5 16 9 14 15 11 15 -7z m30 -24 c0 -5 -4
-10 -10 -10 -5 0 -10 5 -10 10 0 6 5 10 10 10 6 0 10 -4 10 -10z m-260 -66 c0
-8 -9 -14 -21 -14 -11 0 -17 5 -14 10 4 6 11 8 16 5 5 -3 6 2 2 11 -4 12 -3
15 5 10 7 -4 12 -14 12 -22z m-46 -39 c-7 -16 -24 -21 -24 -6 0 8 7 13 27 20
1 1 0 -6 -3 -14z m432 -152 c19 -25 17 -32 -5 -26 -12 3 -19 13 -18 24 2 24 6
24 23 2z m44 7 c0 -5 -9 -10 -21 -10 -11 0 -17 5 -14 10 3 6 13 10 21 10 8 0
14 -4 14 -10z m-63 -86 c-3 -3 -12 -4 -19 -1 -8 3 -5 6 6 6 11 1 17 -2 13 -5z
m-443 -115 c13 20 27 12 16 -9 -9 -16 -19 -20 -47 -17 -21 2 -39 10 -41 17 -3
9 3 11 22 6 18 -4 26 -2 26 6 0 10 2 10 9 -1 6 -9 11 -10 15 -2z"/>
<path d="M10178 15503 c7 -3 16 -2 19 1 4 3 -2 6 -13 5 -11 0 -14 -3 -6 -6z"/>
<path d="M10153 15273 c-15 -5 -18 -33 -4 -33 5 0 11 9 14 20 3 11 4 20 4 19
-1 0 -8 -3 -14 -6z"/>
<path d="M10177 15143 c-4 -3 -7 -11 -7 -17 0 -6 5 -5 12 2 6 6 9 14 7 17 -3
3 -9 2 -12 -2z"/>
<path d="M10142 15098 c6 -18 28 -21 28 -4 0 9 -7 16 -16 16 -9 0 -14 -5 -12
-12z"/>
<path d="M10226 14855 c-3 -8 -1 -15 4 -15 6 0 10 7 10 15 0 8 -2 15 -4 15 -2
0 -6 -7 -10 -15z"/>
<path d="M10195 14784 c9 -9 19 -13 23 -10 3 4 0 11 -8 16 -24 15 -33 11 -15
-6z"/>
<path d="M10208 14713 c7 -3 16 -2 19 1 4 3 -2 6 -13 5 -11 0 -14 -3 -6 -6z"/>
<path d="M10188 14633 c7 -3 16 -2 19 1 4 3 -2 6 -13 5 -11 0 -14 -3 -6 -6z"/>
<path d="M10151 14604 c0 -11 3 -14 6 -6 3 7 2 16 -1 19 -3 4 -6 -2 -5 -13z"/>
<path d="M10130 14469 c0 -4 6 -12 14 -18 11 -9 15 -8 20 5 3 8 6 17 6 18 0 1
-9 2 -20 2 -11 0 -20 -3 -20 -7z"/>
<path d="M10120 14420 c0 -5 5 -10 10 -10 6 0 10 5 10 10 0 6 -4 10 -10 10 -5
0 -10 -4 -10 -10z"/>
<path d="M10128 14393 c7 -3 16 -2 19 1 4 3 -2 6 -13 5 -11 0 -14 -3 -6 -6z"/>
<path d="M10180 14389 c0 -5 5 -7 10 -4 6 3 10 8 10 11 0 2 -4 4 -10 4 -5 0
-10 -5 -10 -11z"/>
<path d="M10112 14279 c2 -7 10 -15 17 -17 8 -3 12 1 9 9 -2 7 -10 15 -17 17
-8 3 -12 -1 -9 -9z"/>
<path d="M10110 13935 c0 -8 7 -15 15 -15 9 0 12 6 9 15 -4 8 -10 15 -15 15
-5 0 -9 -7 -9 -15z"/>
<path d="M10145 13881 c-3 -5 -1 -12 5 -16 5 -3 10 1 10 9 0 18 -6 21 -15 7z"/>
<path d="M10145 13780 c3 -5 8 -10 11 -10 2 0 4 5 4 10 0 6 -5 10 -11 10 -5 0
-7 -4 -4 -10z"/>
<path d="M10236 13587 c3 -10 9 -15 12 -12 3 3 0 11 -7 18 -10 9 -11 8 -5 -6z"/>
<path d="M9915 12190 c3 -5 8 -10 11 -10 2 0 4 5 4 10 0 6 -5 10 -11 10 -5 0
-7 -4 -4 -10z"/>
<path d="M9918 12083 c7 -3 16 -2 19 1 4 3 -2 6 -13 5 -11 0 -14 -3 -6 -6z"/>
<path d="M9976 11996 c3 -8 12 -12 20 -9 17 6 9 23 -11 23 -8 0 -12 -6 -9 -14z"/>
<path d="M10030 11880 c0 -5 5 -10 10 -10 6 0 10 5 10 10 0 6 -4 10 -10 10 -5
0 -10 -4 -10 -10z"/>
<path d="M10006 11842 c-9 -15 12 -35 29 -28 15 5 15 8 1 21 -17 17 -23 18
-30 7z"/>
<path d="M9946 11763 c-6 -14 -5 -15 5 -6 7 7 10 15 7 18 -3 3 -9 -2 -12 -12z"/>
<path d="M6370 7990 c-102 -13 -165 -51 -201 -122 -44 -86 -41 -322 6 -427 52
-116 94 -135 296 -134 174 0 226 12 279 62 59 56 75 123 75 306 0 127 -3 155
-19 185 -42 79 -83 106 -195 126 -82 14 -154 16 -241 4z"/>
<path d="M3175 7833 c-36 -9 -83 -52 -104 -97 -18 -37 -22 -62 -22 -157 -1
-167 20 -240 79 -284 28 -20 146 -26 802 -37 l155 -3 5 -1070 c5 -1061 5
-1070 26 -1115 49 -104 122 -135 314 -134 134 0 234 19 280 53 55 40 53 16 59
1186 l6 1080 430 8 c237 4 446 12 466 17 53 15 84 43 116 108 25 51 28 67 27
152 0 68 -6 115 -22 166 -37 120 -27 115 -253 125 -203 8 -2329 10 -2364 2z"/>
<path d="M14750 7830 c-144 -6 -180 -16 -238 -65 -72 -61 -67 43 -70 -1279 -2
-722 1 -1228 7 -1286 11 -115 34 -168 91 -209 62 -45 114 -55 258 -48 70 3
150 12 177 20 139 39 155 87 164 487 l6 274 265 3 c361 4 527 35 693 129 44
24 81 44 83 44 2 0 34 20 71 44 129 83 196 155 294 318 97 160 133 297 132
498 0 156 -15 258 -53 372 -56 166 -100 245 -195 345 -169 180 -376 293 -630
344 -66 13 -818 20 -1055 9z m1028 -721 c53 -18 70 -30 104 -73 23 -28 57 -84
76 -125 32 -69 34 -81 30 -148 -9 -131 -80 -237 -193 -289 -76 -35 -159 -44
-407 -44 -212 0 -228 1 -237 19 -9 15 -14 322 -11 643 0 37 0 37 48 41 26 3
155 3 287 1 213 -3 247 -6 303 -25z"/>
<path d="M19765 7063 c-208 -25 -365 -86 -552 -215 -205 -141 -359 -388 -419
-671 -18 -88 -18 -320 0 -407 33 -154 92 -293 169 -395 142 -191 244 -281 412
-361 185 -88 335 -119 535 -111 151 6 231 24 375 84 179 75 232 110 351 228
123 123 187 217 242 354 65 164 75 218 76 406 0 176 -5 213 -51 360 -99 319
-387 592 -728 690 -126 36 -297 52 -410 38z m275 -745 c87 -42 162 -111 193
-178 29 -63 28 -171 -3 -284 -20 -74 -30 -94 -67 -132 -50 -52 -160 -108 -246
-125 -105 -21 -236 26 -333 120 -69 66 -99 149 -98 271 1 147 47 240 152 307
77 50 130 63 237 60 80 -3 98 -7 165 -39z"/>
<path d="M12213 7045 c-119 -26 -278 -131 -333 -221 -54 -86 -45 -137 55 -304
245 -413 394 -665 465 -790 46 -80 91 -156 101 -170 40 -59 199 -341 199 -355
0 -22 -31 -96 -131 -312 -168 -366 -222 -502 -227 -570 -6 -82 10 -124 66
-173 79 -70 280 -151 379 -154 109 -2 158 63 328 441 123 274 481 1075 671
1503 158 355 155 347 227 500 59 125 95 226 103 284 22 156 -213 326 -449 326
-141 0 -147 -11 -504 -830 -85 -196 -106 -240 -115 -240 -4 0 -19 21 -32 48
-30 59 -198 345 -281 477 -34 55 -95 159 -135 230 -149 266 -177 299 -259 315
-30 5 -56 10 -60 9 -3 0 -34 -7 -68 -14z"/>
<path d="M18101 7029 c-79 -13 -235 -91 -293 -145 -48 -44 -50 -45 -69 -28
-10 9 -19 22 -19 28 0 6 -20 32 -44 58 -72 76 -186 101 -351 74 -139 -22 -167
-31 -207 -69 -65 -58 -63 -20 -66 -940 -3 -862 0 -927 36 -977 60 -81 242
-119 435 -89 82 13 111 25 149 66 69 73 83 197 74 693 -7 411 -2 472 43 528
53 67 116 112 181 129 58 14 63 14 184 -16 146 -37 192 -40 266 -17 91 27 125
64 165 182 63 182 62 332 -2 412 -77 95 -286 143 -482 111z"/>
<path d="M9885 7019 c-107 -14 -173 -61 -206 -147 l-23 -57 0 -1260 c-1 -1346
0 -1365 48 -1437 40 -62 134 -89 302 -90 116 0 162 10 226 51 55 35 78 66 89
124 5 23 9 237 9 475 0 239 2 437 5 442 3 5 53 -16 113 -46 84 -43 126 -58
197 -71 165 -28 349 -1 495 72 72 36 202 139 280 221 190 201 280 433 280 727
0 255 -101 498 -292 702 -83 89 -165 150 -275 204 -132 65 -211 85 -343 85
-182 1 -280 -33 -384 -132 -39 -39 -60 -53 -63 -43 -12 31 -92 118 -128 138
-61 34 -227 55 -330 42z m940 -708 c51 -24 101 -77 156 -166 41 -65 44 -75 44
-140 0 -61 -5 -79 -38 -145 -65 -128 -123 -172 -245 -190 -225 -32 -382 109
-382 343 0 56 6 81 30 132 35 74 109 146 173 168 63 23 212 21 262 -2z"/>
<path d="M7402 7003 c-24 -8 -61 -32 -82 -52 -74 -70 -70 5 -70 -1380 0 -680
5 -1277 9 -1328 10 -100 27 -141 71 -167 78 -46 329 -65 427 -32 68 23 130 77
143 125 17 62 30 355 30 669 0 278 1 292 19 292 10 0 38 -16 62 -35 84 -66
225 -104 390 -105 384 -1 800 388 880 823 15 81 14 274 0 362 -14 80 -62 228
-96 295 -93 181 -289 377 -470 468 -251 126 -564 100 -722 -59 -60 -60 -68
-58 -108 20 -33 65 -65 91 -132 107 -80 19 -295 17 -351 -3z m1004 -690 c64
-22 132 -92 178 -184 30 -59 36 -83 36 -134 0 -71 -13 -109 -64 -179 -75 -105
-163 -151 -291 -151 -136 0 -218 56 -284 194 -30 64 -36 87 -36 141 1 122 95
269 198 309 67 26 193 28 263 4z"/>
<path d="M6323 6996 c-75 -18 -126 -56 -154 -113 l-24 -48 0 -855 0 -855 23
-50 c52 -114 111 -140 312 -140 162 0 222 16 280 76 67 69 65 40 65 979 l0
845 -23 47 c-29 57 -83 96 -159 114 -72 17 -250 17 -320 0z"/>
</g>
</svg>
